HIERARCHY
ROOT Hips
{
	OFFSET -3.958830 18.904000 13.208200
	CHANNELS 6 Xposition Yposition Zposition Zrotation Yrotation Xrotation 
	JOINT LHipJoint
	{
		OFFSET 0.000000 0.000000 0.000000
		CHANNELS 3 Zrotation Yrotation Xrotation
		JOINT LeftUpLeg
		{
			OFFSET 1.800000 -1.400000 0.085000
			CHANNELS 3 Zrotation Yrotation Xrotation
			JOINT LeftLeg
			{
				OFFSET 2.215000 -6.000000 0.000000
				CHANNELS 3 Zrotation Yrotation Xrotation
				JOINT LeftFoot
				{
					OFFSET 2.500000 -6.900000 0.000000
					CHANNELS 3 Zrotation Yrotation Xrotation
					JOINT LeftToeBase
					{
						OFFSET 0.200000 -0.500000 1.950000
						CHANNELS 3 Zrotation Yrotation Xrotation
						End Site
						{
							OFFSET 0.000000 0.000000 0.000000
						}
					}
				}
			}
		}
	}
	JOINT RHipJoint
	{
		OFFSET 0.000000 0.000000 0.000000
		CHANNELS 3 Zrotation Yrotation Xrotation
		JOINT RightUpLeg
		{
			OFFSET -1.800000 -1.400000 0.085000
			CHANNELS 3 Zrotation Yrotation Xrotation
			JOINT RightLeg
			{
				OFFSET -2.215000 -6.000000 0.000000
				CHANNELS 3 Zrotation Yrotation Xrotation
				JOINT RightFoot
				{
					OFFSET -2.500000 -6.900000 0.000000
					CHANNELS 3 Zrotation Yrotation Xrotation
					JOINT RightToeBase
					{
						OFFSET -0.200000 -0.500000 1.950000
						CHANNELS 3 Zrotation Yrotation Xrotation
						End Site
						{
							OFFSET 0.000000 0.000000 0.000000
						}
					}
				}
			}
		}
	}
	JOINT LowerBack
	{
		OFFSET 0.000000 0.000000 0.000000
		CHANNELS 3 Zrotation Yrotation Xrotation
		JOINT Spine
		{
			OFFSET -0.087000 1.940000 -0.288900
			CHANNELS 3 Zrotation Yrotation Xrotation
			JOINT Spine1
			{
				OFFSET 0.000000 1.950000 0.060000
				CHANNELS 3 Zrotation Yrotation Xrotation
				JOINT Neck
				{
					OFFSET 0.000000 0.000000 0.000000
					CHANNELS 3 Zrotation Yrotation Xrotation
					JOINT Neck1
					{
						OFFSET 0.000000 1.600000 0.340000
						CHANNELS 3 Zrotation Yrotation Xrotation
						JOINT Head
						{
							OFFSET 0.000000 1.667000 -0.240000
							CHANNELS 3 Zrotation Yrotation Xrotation
							End Site
							{
								OFFSET 0.000000 0.000000 0.000000
							}
						}
					}
				}
				JOINT LeftShoulder
				{
					OFFSET 0.000000 0.000000 0.000000
					CHANNELS 3 Zrotation Yrotation Xrotation
					JOINT LeftArm
					{
						OFFSET 2.700000 1.550000 -0.730000
						CHANNELS 3 Zrotation Yrotation Xrotation
						JOINT LeftForeArm
						{
							OFFSET 5.450000 0.000000 0.000000
							CHANNELS 3 Zrotation Yrotation Xrotation
							JOINT LeftHand
							{
								OFFSET 3.450000 0.000000 0.000000
								CHANNELS 3 Zrotation Yrotation Xrotation
								JOINT LeftHandIndex1
								{
									OFFSET 0.750000 0.000000 0.000000
									CHANNELS 3 Zrotation Yrotation Xrotation
									End Site
									{
										OFFSET 0.000000 0.000000 0.000000
									}
								}
							}
						}
					}
				}
				JOINT RightShoulder
				{
					OFFSET 0.000000 0.000000 0.000000
					CHANNELS 3 Zrotation Yrotation Xrotation
					JOINT RightArm
					{
						OFFSET -2.700000 1.550000 -0.730000
						CHANNELS 3 Zrotation Yrotation Xrotation
						JOINT RightForeArm
						{
							OFFSET -5.450000 0.000000 0.000000
							CHANNELS 3 Zrotation Yrotation Xrotation
							JOINT RightHand
							{
								OFFSET -3.450000 0.000000 0.000000
								CHANNELS 3 Zrotation Yrotation Xrotation
								JOINT RightHandIndex1
								{
									OFFSET -0.750000 0.000000 0.000000
									CHANNELS 3 Zrotation Yrotation Xrotation
									End Site
									{
										OFFSET 0.000000 0.000000 0.000000
									}
								}
							}
						}
					}
				}
			}
		}
	}
}
MOTION
Frames: 4
Frame Time: 0.016667
-0.729470 17.198590 -2.975580 -0.187099 -4.038510 -11.577463 -15.151975 12.359771 3.525759 -0.161113 -6.925046 -28.887835 9.427433 5.881379 62.878054 0.001414 10.948268 0.711551 0.472280 0.455830 -0.115920 18.534513 -9.750507 3.833085 5.891813 11.580526 -25.026259 -0.161994 -9.698287 62.623259 -1.996934 -9.554965 0.903303 0.449030 0.817750 0.650300 -3.930454 -1.382361 -8.299626 6.224622 -2.794207 48.506318 -8.909577 3.525619 14.692376 -0.251812 -4.471532 -9.708234 -10.637766 -1.237506 32.424175 3.802750 -5.003590 -31.619910 26.020122 -26.060246 -8.336237 35.770285 -34.542448 -11.170180 10.756126 -8.529971 -2.053725 -4.336926 2.336318 0.998760 0.224140 0.346740 0.431730 -26.644107 31.241456 1.876327 -28.805743 13.846300 -12.784156 -19.927459 25.199310 -2.404154 1.707905 -1.475193 -0.373590 0.882760 0.401900 0.125460 
-0.688630 17.095400 -2.991650 -0.656599 -5.798571 -11.632451 -15.111525 12.360479 3.512361 -0.354936 -7.188362 -28.131677 9.009214 5.963263 63.037862 -0.016713 10.966518 0.695377 0.529600 0.577620 -0.074090 18.571505 -9.759773 3.838539 6.272535 11.499776 -24.742613 0.250123 -10.348276 63.667464 -2.061304 -9.823044 0.814268 0.548400 0.817020 0.624740 -4.026385 -1.277062 -8.228758 6.841642 -4.190916 47.633681 -10.315813 2.571486 18.858882 -0.004041 -4.121450 -11.751290 -9.868534 -0.577144 31.185304 2.426000 -4.270160 -30.526580 31.762230 -27.750659 -11.172994 30.070162 -32.976270 -8.749040 10.932433 4.126846 -2.758925 -4.674864 1.958593 0.927790 0.261090 0.341850 0.432910 -32.978670 32.690763 -1.400792 -26.948490 13.867741 -13.510979 -22.612061 18.626835 -3.129728 1.979955 -1.588705 -0.364750 0.922220 0.373400 0.135000 
-0.638240 16.995480 -3.008130 -1.115904 -7.487002 -11.589470 -15.212128 12.409642 3.710598 -0.040487 -8.228934 -28.580905 8.200264 6.478511 64.911448 0.091877 11.356470 0.583170 0.482860 0.496230 -0.062160 18.486087 -9.542269 3.773980 6.354811 11.080429 -25.292192 -0.353035 -10.760313 65.330223 -2.137914 -10.104621 0.747489 0.480180 0.804780 0.656890 -3.764290 -1.921181 -8.312602 6.035875 -4.206998 47.741013 -9.131295 1.868884 18.106269 0.744820 -4.249932 -11.783364 -10.183502 1.475354 31.933499 1.162300 -2.573080 -30.589290 28.307642 -30.288266 -9.552274 29.124776 -31.176037 -9.986187 13.869675 7.445225 -3.072504 -4.865802 1.892023 0.964400 0.267940 0.362210 0.411530 -30.956212 35.020276 -1.300057 -29.125227 14.964336 -15.911320 -26.626961 17.401449 -4.054123 2.107479 -1.512041 -0.368450 0.890350 0.389300 0.106720 
-0.596260 16.914000 -3.016490 -0.979353 -9.703110 -11.839279 -15.291673 12.385215 3.883826 0.454088 -9.118951 -28.988243 6.882185 7.710887 67.108122 0.270537 11.889683 0.456688 0.407870 0.375150 -0.089750 18.428412 -9.344463 3.721780 5.464211 10.966145 -26.448977 -0.494542 -11.499218 67.639152 -2.218410 -10.548562 0.646291 0.386330 0.825960 0.680230 -3.575830 -2.375467 -8.416330 5.329072 -3.392584 48.806348 -7.141413 1.831657 16.351512 0.663350 -4.119887 -11.764288 -9.683804 2.755884 32.022818 0.552550 -1.536140 -29.803290 23.968843 -30.734510 -6.200199 32.322448 -27.726058 -9.525084 9.615680 6.525984 -2.927434 -4.827225 1.690338 0.977290 0.283660 0.346190 0.401810 -26.270528 35.154818 0.652496 -30.829346 15.174189 -18.707914 -32.856899 21.748049 -6.141895 2.079185 -1.523130 -0.376690 0.851520 0.410570 0.096940 
